<svg version="1" xmlns="http://www.w3.org/2000/svg" width="933.333" height="933.333" viewBox="0 0 700.000000 700.000000"><path d="M331.8 95.5c-.2.1-3 .6-6.3.9-3.3.4-6.7.8-7.5 1-.8.1-3.3.6-5.5 1-53.5 10.2-101.3 42.3-131.9 88.6-5.3 7.9-17.5 31-18.9 35.5-.3 1.1-2 6-3.7 11-3.5 10.3-7.6 26.6-8.5 34.1-.3 2.8-.8 6.1-1.1 7.5-.2 1.3-.7 9.4-.9 17.9-.4 13.8.9 31.4 3 41 .2 1.4.8 4.1 1.1 6 2.6 15 16.3 51.2 20.8 54.9 1.5 1.3 5.6.7 5.6-.8 0-.5 1-1.9 2.3-3.2 1.2-1.3 4.9-5.8 8.2-9.9 3.3-4.1 6.2-7.7 6.6-8 .3-.3 3.1-3.8 6.4-7.9 6.6-8.4 6.5-5.6 1.1-23.5-4.5-15.3-6.3-28.7-6-44.6 1.1-52.4 26.4-98.2 70.2-126.8 19.6-12.8 45.7-21.9 68.2-23.8 5.1-.4 24.9-.4 29.5 0 2.6.2 13 1.7 14.5 2.1.3.1 2.1.5 4 .9 27.8 6 54.8 21.2 76.1 42.8 23.1 23.6 39.1 56.5 42.6 87.6 1 8.5 1 32 .1 39.2-3.1 23-11.9 45.9-25.2 65.7-4.1 6.1-5.8 7.8-7.6 7.8-1.9 0-5.1-3.3-14.7-15-6.7-8.3-12.2-15.5-12.3-16.2 0-.6 2.5-6 5.5-12 9.1-18.2 12.5-33 12-53.3-.6-23.8-7.5-44-21.5-62.9-5.7-7.6-17.5-19.5-22.7-22.8-1.6-1-3-2-3.3-2.3-.3-.3-2.8-2-5.5-3.7-24.2-14.6-53.9-19.2-82.5-12.7-43.8 10-78.9 49.6-83.6 94.3-1.3 12.2-.5 29.4 1.7 37.6.6 2.2 1.2 4.7 1.4 5.5 1.3 6.2 7.9 20.8 12.4 27.5 1.2 1.6 2.1 3.7 2.1 4.5 0 1.3-6 9.3-13.8 18.5-1.7 2-25.7 31.8-27.7 34.3-.5.7-1.7 2.1-2.5 3-.8 1-4.4 5.5-7.9 10-5.8 7.5-6.3 8.6-5.2 10.4.7 1.1 12.3 15.4 25.9 31.7 13.5 16.3 28.6 34.5 33.6 40.6 12.8 15.5 30.4 36.6 32.4 39 .9 1.1 4.6 5.6 8.2 10 3.5 4.4 6.7 8.2 7 8.5.3.3 2.5 3 5 6s4.7 5.7 5 6c.3.3 3.3 3.9 6.7 8 7.9 9.8 10.9 12.5 15.8 14.6 7.6 3.1 19.4 1.1 25-4.3 2.6-2.4 6.8-7.5 25.6-30.3 8.3-10.2 16.9-20.5 19-23 2-2.5 6.5-7.9 9.9-12 3.4-4.1 7.2-8.6 8.3-10 6.1-7 10.4-12.7 11-14.1.6-1.8-2.3-5.8-16.3-23-10.1-12.4-11.6-13.9-13.4-13.9-.7 0-6.2 6-12.2 13.3-5.9 7.2-11.1 13.4-11.4 13.7-.3.3-4.6 5.4-9.5 11.5-4.9 6-9.4 11.5-10 12.1-.5.6-3.9 4.8-7.5 9.3-7.4 9.1-10.3 10.7-13.3 7-3.1-3.9-17.1-21-18.9-23.1-.9-1-3.1-3.7-5-6-1.8-2.3-3.8-4.6-4.3-5.2-.6-.6-4.2-4.9-8-9.6-3.9-4.7-8-9.6-9.2-11-7-8.1-38.3-46.5-38.3-47.1 0-.6 2.2-3.5 9-11.9 25.7-31.8 54-67.8 54-68.7 0-.7-3.1-3.2-6.8-5.6-18.4-11.9-28.6-29.5-29.1-50.5-.6-23.9 13.5-46.3 35.4-56.2 14.5-6.6 31.1-7.2 46.3-1.8 13 4.7 26 16.5 32.2 29.2 14.2 28.7 5.9 59.3-21.2 78.3-4.3 3-7.8 6-7.8 6.8 0 1 24.8 32.6 36.8 47 .9 1.1 3.5 4.2 5.7 7 2.2 2.7 4.5 5.5 5 6.1.6.6 10.7 13.3 22.5 28.2 11.8 14.8 22.4 27.3 23.5 27.6 2.4.7 1.7 1.4 22-23.5 19.8-24.2 24.2-29.9 30-38.9 14.9-23.2 23.2-43 29.1-69.5 5.3-23.6 5.3-57.9 0-82.5-4.4-20.5-8.6-32.6-18.1-51.5C504 152.7 457 115.2 399 100.4c-7-1.7-7.7-1.9-20.8-3.9-7.3-1.1-45.4-1.9-46.4-1z"/></svg>